<svg width="1024" height="332" viewBox="0 0 1024 332" fill="none" xmlns="http://www.w3.org/2000/svg">
<rect width="1025" height="332" fill="url(#paint0_linear_115_7217)"/>
<path d="M321.74 41.224V42.616H317.084V58H315.404V42.616H310.724V41.224H321.74ZM331.929 58.168C330.377 58.168 328.969 57.808 327.705 57.088C326.441 56.352 325.441 55.336 324.705 54.04C323.985 52.728 323.625 51.248 323.625 49.6C323.625 47.952 323.985 46.48 324.705 45.184C325.441 43.872 326.441 42.856 327.705 42.136C328.969 41.4 330.377 41.032 331.929 41.032C333.497 41.032 334.913 41.4 336.177 42.136C337.441 42.856 338.433 43.872 339.153 45.184C339.873 46.48 340.233 47.952 340.233 49.6C340.233 51.248 339.873 52.728 339.153 54.04C338.433 55.336 337.441 56.352 336.177 57.088C334.913 57.808 333.497 58.168 331.929 58.168ZM331.929 56.704C333.177 56.704 334.297 56.416 335.289 55.84C336.281 55.264 337.065 54.44 337.641 53.368C338.217 52.28 338.505 51.024 338.505 49.6C338.505 48.176 338.217 46.928 337.641 45.856C337.065 44.784 336.281 43.96 335.289 43.384C334.297 42.808 333.177 42.52 331.929 42.52C330.681 42.52 329.561 42.808 328.569 43.384C327.577 43.96 326.793 44.784 326.217 45.856C325.641 46.928 325.353 48.176 325.353 49.6C325.353 51.024 325.641 52.28 326.217 53.368C326.793 54.44 327.577 55.264 328.569 55.84C329.561 56.416 330.681 56.704 331.929 56.704ZM334.257 37.576L329.337 40.432V39.136L334.257 36.064V37.576ZM354.035 46.048C354.035 47.488 353.563 48.648 352.619 49.528C351.675 50.408 350.259 50.848 348.371 50.848H344.987V58H343.307V41.224H348.371C350.243 41.224 351.651 41.664 352.595 42.544C353.555 43.424 354.035 44.592 354.035 46.048ZM348.371 49.408C350.995 49.408 352.307 48.288 352.307 46.048C352.307 44.928 351.995 44.08 351.371 43.504C350.747 42.928 349.747 42.64 348.371 42.64H344.987V49.408H348.371ZM358.534 41.224V58H356.854V41.224H358.534ZM361.57 49.6C361.57 47.952 361.93 46.48 362.65 45.184C363.37 43.872 364.354 42.856 365.602 42.136C366.85 41.4 368.242 41.032 369.778 41.032C371.65 41.032 373.25 41.48 374.578 42.376C375.922 43.256 376.898 44.504 377.506 46.12H375.538C375.058 44.984 374.322 44.096 373.33 43.456C372.354 42.816 371.17 42.496 369.778 42.496C368.546 42.496 367.434 42.784 366.442 43.36C365.466 43.936 364.698 44.768 364.138 45.856C363.578 46.928 363.298 48.176 363.298 49.6C363.298 51.024 363.578 52.272 364.138 53.344C364.698 54.416 365.466 55.24 366.442 55.816C367.434 56.392 368.546 56.68 369.778 56.68C371.17 56.68 372.354 56.368 373.33 55.744C374.322 55.104 375.058 54.224 375.538 53.104H377.506C376.898 54.704 375.922 55.944 374.578 56.824C373.234 57.704 371.634 58.144 369.778 58.144C368.242 58.144 366.85 57.784 365.602 57.064C364.354 56.328 363.37 55.312 362.65 54.016C361.93 52.72 361.57 51.248 361.57 49.6ZM388.39 58.168C386.838 58.168 385.43 57.808 384.166 57.088C382.902 56.352 381.902 55.336 381.166 54.04C380.446 52.728 380.086 51.248 380.086 49.6C380.086 47.952 380.446 46.48 381.166 45.184C381.902 43.872 382.902 42.856 384.166 42.136C385.43 41.4 386.838 41.032 388.39 41.032C389.958 41.032 391.374 41.4 392.638 42.136C393.902 42.856 394.894 43.872 395.614 45.184C396.334 46.48 396.694 47.952 396.694 49.6C396.694 51.248 396.334 52.728 395.614 54.04C394.894 55.336 393.902 56.352 392.638 57.088C391.374 57.808 389.958 58.168 388.39 58.168ZM388.39 56.704C389.638 56.704 390.758 56.416 391.75 55.84C392.742 55.264 393.526 54.44 394.102 53.368C394.678 52.28 394.966 51.024 394.966 49.6C394.966 48.176 394.678 46.928 394.102 45.856C393.526 44.784 392.742 43.96 391.75 43.384C390.758 42.808 389.638 42.52 388.39 42.52C387.142 42.52 386.022 42.808 385.03 43.384C384.038 43.96 383.254 44.784 382.678 45.856C382.102 46.928 381.814 48.176 381.814 49.6C381.814 51.024 382.102 52.28 382.678 53.368C383.254 54.44 384.038 55.264 385.03 55.84C386.022 56.416 387.142 56.704 388.39 56.704ZM404.856 58.168C403.752 58.168 402.776 57.976 401.928 57.592C401.096 57.208 400.44 56.672 399.96 55.984C399.48 55.296 399.224 54.528 399.192 53.68H400.968C401.048 54.496 401.408 55.216 402.048 55.84C402.688 56.448 403.624 56.752 404.856 56.752C405.992 56.752 406.888 56.464 407.544 55.888C408.216 55.296 408.552 54.552 408.552 53.656C408.552 52.936 408.368 52.36 408 51.928C407.632 51.48 407.176 51.152 406.632 50.944C406.088 50.72 405.336 50.48 404.376 50.224C403.256 49.92 402.368 49.624 401.712 49.336C401.056 49.048 400.496 48.6 400.032 47.992C399.568 47.384 399.336 46.56 399.336 45.52C399.336 44.656 399.56 43.888 400.008 43.216C400.456 42.528 401.088 41.992 401.904 41.608C402.72 41.224 403.656 41.032 404.712 41.032C406.264 41.032 407.512 41.416 408.456 42.184C409.416 42.936 409.968 43.912 410.112 45.112H408.288C408.176 44.424 407.8 43.816 407.16 43.288C406.52 42.744 405.656 42.472 404.568 42.472C403.56 42.472 402.72 42.744 402.048 43.288C401.376 43.816 401.04 44.544 401.04 45.472C401.04 46.176 401.224 46.744 401.592 47.176C401.96 47.608 402.416 47.936 402.96 48.16C403.52 48.384 404.272 48.624 405.216 48.88C406.304 49.184 407.184 49.488 407.856 49.792C408.528 50.08 409.096 50.528 409.56 51.136C410.024 51.744 410.256 52.56 410.256 53.584C410.256 54.368 410.048 55.112 409.632 55.816C409.216 56.52 408.6 57.088 407.784 57.52C406.968 57.952 405.992 58.168 404.856 58.168ZM433.384 41.224L427.024 58H425.104L418.744 41.224H420.568L426.064 56.176L431.608 41.224H433.384ZM437.588 41.224V58H435.908V41.224H437.588ZM446.481 58.168C445.377 58.168 444.401 57.976 443.553 57.592C442.721 57.208 442.065 56.672 441.585 55.984C441.105 55.296 440.849 54.528 440.817 53.68H442.593C442.673 54.496 443.033 55.216 443.673 55.84C444.313 56.448 445.249 56.752 446.481 56.752C447.617 56.752 448.513 56.464 449.169 55.888C449.841 55.296 450.177 54.552 450.177 53.656C450.177 52.936 449.993 52.36 449.625 51.928C449.257 51.48 448.801 51.152 448.257 50.944C447.713 50.72 446.961 50.48 446.001 50.224C444.881 49.92 443.993 49.624 443.337 49.336C442.681 49.048 442.121 48.6 441.657 47.992C441.193 47.384 440.961 46.56 440.961 45.52C440.961 44.656 441.185 43.888 441.633 43.216C442.081 42.528 442.713 41.992 443.529 41.608C444.345 41.224 445.281 41.032 446.337 41.032C447.889 41.032 449.137 41.416 450.081 42.184C451.041 42.936 451.593 43.912 451.737 45.112H449.913C449.801 44.424 449.425 43.816 448.785 43.288C448.145 42.744 447.281 42.472 446.193 42.472C445.185 42.472 444.345 42.744 443.673 43.288C443.001 43.816 442.665 44.544 442.665 45.472C442.665 46.176 442.849 46.744 443.217 47.176C443.585 47.608 444.041 47.936 444.585 48.16C445.145 48.384 445.897 48.624 446.841 48.88C447.929 49.184 448.809 49.488 449.481 49.792C450.153 50.08 450.721 50.528 451.185 51.136C451.649 51.744 451.881 52.56 451.881 53.584C451.881 54.368 451.673 55.112 451.257 55.816C450.841 56.52 450.225 57.088 449.409 57.52C448.593 57.952 447.617 58.168 446.481 58.168ZM456.807 41.224V58H455.127V41.224H456.807ZM470.427 41.224V42.616H465.771V58H464.091V42.616H459.411V41.224H470.427ZM482.8 54.016H475.168L473.704 58H471.928L478.048 41.44H479.944L486.04 58H484.264L482.8 54.016ZM482.296 52.624L478.984 43.552L475.672 52.624H482.296ZM493.704 41.224C495.56 41.224 497.152 41.56 498.48 42.232C499.808 42.904 500.824 43.872 501.528 45.136C502.232 46.4 502.584 47.904 502.584 49.648C502.584 51.376 502.232 52.872 501.528 54.136C500.824 55.384 499.808 56.344 498.48 57.016C497.152 57.672 495.56 58 493.704 58H488.736V41.224H493.704ZM493.704 56.608C496.04 56.608 497.816 56 499.032 54.784C500.264 53.552 500.88 51.84 500.88 49.648C500.88 47.44 500.264 45.72 499.032 44.488C497.816 43.24 496.04 42.616 493.704 42.616H490.416V56.608H493.704ZM513.218 58.168C511.666 58.168 510.258 57.808 508.994 57.088C507.73 56.352 506.73 55.336 505.994 54.04C505.274 52.728 504.914 51.248 504.914 49.6C504.914 47.952 505.274 46.48 505.994 45.184C506.73 43.872 507.73 42.856 508.994 42.136C510.258 41.4 511.666 41.032 513.218 41.032C514.786 41.032 516.202 41.4 517.466 42.136C518.73 42.856 519.722 43.872 520.442 45.184C521.162 46.48 521.522 47.952 521.522 49.6C521.522 51.248 521.162 52.728 520.442 54.04C519.722 55.336 518.73 56.352 517.466 57.088C516.202 57.808 514.786 58.168 513.218 58.168ZM513.218 56.704C514.466 56.704 515.586 56.416 516.578 55.84C517.57 55.264 518.354 54.44 518.93 53.368C519.506 52.28 519.794 51.024 519.794 49.6C519.794 48.176 519.506 46.928 518.93 45.856C518.354 44.784 517.57 43.96 516.578 43.384C515.586 42.808 514.466 42.52 513.218 42.52C511.97 42.52 510.85 42.808 509.858 43.384C508.866 43.96 508.082 44.784 507.506 45.856C506.93 46.928 506.642 48.176 506.642 49.6C506.642 51.024 506.93 52.28 507.506 53.368C508.082 54.44 508.866 55.264 509.858 55.84C510.85 56.416 511.97 56.704 513.218 56.704ZM529.684 58.168C528.58 58.168 527.604 57.976 526.756 57.592C525.924 57.208 525.268 56.672 524.788 55.984C524.308 55.296 524.052 54.528 524.02 53.68H525.796C525.876 54.496 526.236 55.216 526.876 55.84C527.516 56.448 528.452 56.752 529.684 56.752C530.82 56.752 531.716 56.464 532.372 55.888C533.044 55.296 533.38 54.552 533.38 53.656C533.38 52.936 533.196 52.36 532.828 51.928C532.46 51.48 532.004 51.152 531.46 50.944C530.916 50.72 530.164 50.48 529.204 50.224C528.084 49.92 527.196 49.624 526.54 49.336C525.884 49.048 525.324 48.6 524.86 47.992C524.396 47.384 524.164 46.56 524.164 45.52C524.164 44.656 524.388 43.888 524.836 43.216C525.284 42.528 525.916 41.992 526.732 41.608C527.548 41.224 528.484 41.032 529.54 41.032C531.092 41.032 532.34 41.416 533.284 42.184C534.244 42.936 534.796 43.912 534.94 45.112H533.116C533.004 44.424 532.628 43.816 531.988 43.288C531.348 42.744 530.484 42.472 529.396 42.472C528.388 42.472 527.548 42.744 526.876 43.288C526.204 43.816 525.868 44.544 525.868 45.472C525.868 46.176 526.052 46.744 526.42 47.176C526.788 47.608 527.244 47.936 527.788 48.16C528.348 48.384 529.1 48.624 530.044 48.88C531.132 49.184 532.012 49.488 532.684 49.792C533.356 50.08 533.924 50.528 534.388 51.136C534.852 51.744 535.084 52.56 535.084 53.584C535.084 54.368 534.876 55.112 534.46 55.816C534.044 56.52 533.428 57.088 532.612 57.52C531.796 57.952 530.82 58.168 529.684 58.168ZM553.844 58L549.692 50.992H546.596V58H544.916V41.224H549.956C551.828 41.224 553.244 41.672 554.204 42.568C555.18 43.464 555.668 44.64 555.668 46.096C555.668 47.312 555.316 48.352 554.612 49.216C553.924 50.064 552.9 50.616 551.54 50.872L555.86 58H553.844ZM546.596 49.624H549.98C551.292 49.624 552.276 49.304 552.932 48.664C553.604 48.024 553.94 47.168 553.94 46.096C553.94 44.992 553.62 44.144 552.98 43.552C552.34 42.944 551.332 42.64 549.956 42.64H546.596V49.624ZM560.682 42.592V48.856H567.042V50.248H560.682V56.608H567.762V58H559.002V41.2H567.762V42.592H560.682ZM570.304 49.6C570.304 47.952 570.664 46.48 571.384 45.184C572.104 43.872 573.088 42.856 574.336 42.136C575.584 41.4 576.976 41.032 578.512 41.032C580.384 41.032 581.984 41.48 583.312 42.376C584.656 43.256 585.632 44.504 586.24 46.12H584.272C583.792 44.984 583.056 44.096 582.064 43.456C581.088 42.816 579.904 42.496 578.512 42.496C577.28 42.496 576.168 42.784 575.176 43.36C574.2 43.936 573.432 44.768 572.872 45.856C572.312 46.928 572.032 48.176 572.032 49.6C572.032 51.024 572.312 52.272 572.872 53.344C573.432 54.416 574.2 55.24 575.176 55.816C576.168 56.392 577.28 56.68 578.512 56.68C579.904 56.68 581.088 56.368 582.064 55.744C583.056 55.104 583.792 54.224 584.272 53.104H586.24C585.632 54.704 584.656 55.944 583.312 56.824C581.968 57.704 580.368 58.144 578.512 58.144C576.976 58.144 575.584 57.784 574.336 57.064C573.088 56.328 572.104 55.312 571.384 54.016C570.664 52.72 570.304 51.248 570.304 49.6ZM591.268 42.592V48.856H597.628V50.248H591.268V56.608H598.348V58H589.588V41.2H598.348V42.592H591.268ZM614.306 58H612.626L603.338 43.888V58H601.658V41.224H603.338L612.626 55.312V41.224H614.306V58ZM627.927 41.224V42.616H623.271V58H621.591V42.616H616.911V41.224H627.927ZM632.26 42.592V48.856H638.62V50.248H632.26V56.608H639.34V58H630.58V41.2H639.34V42.592H632.26ZM659.042 41.44V58H657.362V44.776L651.458 58H650.234L644.33 44.824V58H642.65V41.44H644.426L650.834 55.792L657.242 41.44H659.042ZM664.534 42.592V48.856H670.894V50.248H664.534V56.608H671.614V58H662.854V41.2H671.614V42.592H664.534ZM687.572 58H685.892L676.604 43.888V58H674.924V41.224H676.604L685.892 55.312V41.224H687.572V58ZM701.193 41.224V42.616H696.537V58H694.857V42.616H690.177V41.224H701.193ZM705.526 42.592V48.856H711.886V50.248H705.526V56.608H712.606V58H703.846V41.2H712.606V42.592H705.526Z" fill="white"/>
<rect width="164" height="84" transform="translate(140.5 108)" fill="#EB9B00"/>
<path d="M184.476 155.024H178.188L177.18 158H172.884L178.98 141.152H183.732L189.828 158H185.484L184.476 155.024ZM183.42 151.856L181.332 145.688L179.268 151.856H183.42ZM199.843 144.464C201.411 144.464 202.659 144.976 203.587 146C204.531 147.008 205.003 148.4 205.003 150.176V158H200.923V150.728C200.923 149.832 200.691 149.136 200.227 148.64C199.763 148.144 199.139 147.896 198.355 147.896C197.571 147.896 196.947 148.144 196.483 148.64C196.019 149.136 195.787 149.832 195.787 150.728V158H191.683V144.608H195.787V146.384C196.203 145.792 196.763 145.328 197.467 144.992C198.171 144.64 198.963 144.464 199.843 144.464ZM207.039 151.28C207.039 149.904 207.295 148.696 207.807 147.656C208.335 146.616 209.047 145.816 209.943 145.256C210.839 144.696 211.839 144.416 212.943 144.416C213.823 144.416 214.623 144.6 215.343 144.968C216.079 145.336 216.655 145.832 217.071 146.456V140.24H221.175V158H217.071V156.08C216.687 156.72 216.135 157.232 215.415 157.616C214.711 158 213.887 158.192 212.943 158.192C211.839 158.192 210.839 157.912 209.943 157.352C209.047 156.776 208.335 155.968 207.807 154.928C207.295 153.872 207.039 152.656 207.039 151.28ZM217.071 151.304C217.071 150.28 216.783 149.472 216.207 148.88C215.647 148.288 214.959 147.992 214.143 147.992C213.327 147.992 212.631 148.288 212.055 148.88C211.495 149.456 211.215 150.256 211.215 151.28C211.215 152.304 211.495 153.12 212.055 153.728C212.631 154.32 213.327 154.616 214.143 154.616C214.959 154.616 215.647 154.32 216.207 153.728C216.783 153.136 217.071 152.328 217.071 151.304ZM228.248 146.84C228.728 146.104 229.328 145.528 230.048 145.112C230.768 144.68 231.568 144.464 232.448 144.464V148.808H231.32C230.296 148.808 229.528 149.032 229.016 149.48C228.504 149.912 228.248 150.68 228.248 151.784V158H224.144V144.608H228.248V146.84ZM240.506 158.192C239.194 158.192 238.01 157.912 236.954 157.352C235.914 156.792 235.09 155.992 234.482 154.952C233.89 153.912 233.594 152.696 233.594 151.304C233.594 149.928 233.898 148.72 234.506 147.68C235.114 146.624 235.946 145.816 237.002 145.256C238.058 144.696 239.242 144.416 240.554 144.416C241.866 144.416 243.05 144.696 244.106 145.256C245.162 145.816 245.994 146.624 246.602 147.68C247.21 148.72 247.514 149.928 247.514 151.304C247.514 152.68 247.202 153.896 246.578 154.952C245.97 155.992 245.13 156.792 244.058 157.352C243.002 157.912 241.818 158.192 240.506 158.192ZM240.506 154.64C241.29 154.64 241.954 154.352 242.498 153.776C243.058 153.2 243.338 152.376 243.338 151.304C243.338 150.232 243.066 149.408 242.522 148.832C241.994 148.256 241.338 147.968 240.554 147.968C239.754 147.968 239.09 148.256 238.562 148.832C238.034 149.392 237.77 150.216 237.77 151.304C237.77 152.376 238.026 153.2 238.538 153.776C239.066 154.352 239.722 154.64 240.506 154.64ZM251.755 143.216C251.035 143.216 250.443 143.008 249.979 142.592C249.531 142.16 249.307 141.632 249.307 141.008C249.307 140.368 249.531 139.84 249.979 139.424C250.443 138.992 251.035 138.776 251.755 138.776C252.459 138.776 253.035 138.992 253.483 139.424C253.947 139.84 254.179 140.368 254.179 141.008C254.179 141.632 253.947 142.16 253.483 142.592C253.035 143.008 252.459 143.216 251.755 143.216ZM253.795 144.608V158H249.691V144.608H253.795ZM255.953 151.28C255.953 149.904 256.209 148.696 256.721 147.656C257.249 146.616 257.961 145.816 258.857 145.256C259.753 144.696 260.753 144.416 261.857 144.416C262.737 144.416 263.537 144.6 264.257 144.968C264.993 145.336 265.569 145.832 265.985 146.456V140.24H270.089V158H265.985V156.08C265.601 156.72 265.049 157.232 264.329 157.616C263.625 158 262.801 158.192 261.857 158.192C260.753 158.192 259.753 157.912 258.857 157.352C257.961 156.776 257.249 155.968 256.721 154.928C256.209 153.872 255.953 152.656 255.953 151.28ZM265.985 151.304C265.985 150.28 265.697 149.472 265.121 148.88C264.561 148.288 263.873 147.992 263.057 147.992C262.241 147.992 261.545 148.288 260.969 148.88C260.409 149.456 260.129 150.256 260.129 151.28C260.129 152.304 260.409 153.12 260.969 153.728C261.545 154.32 262.241 154.616 263.057 154.616C263.873 154.616 264.561 154.32 265.121 153.728C265.697 153.136 265.985 152.328 265.985 151.304Z" fill="white"/>
<rect width="102" height="84" transform="translate(328.5 108)" fill="#EB9B00"/>
<path d="M369.956 158.168C368.372 158.168 366.916 157.8 365.588 157.064C364.276 156.328 363.228 155.304 362.444 153.992C361.676 152.664 361.292 151.176 361.292 149.528C361.292 147.88 361.676 146.4 362.444 145.088C363.228 143.776 364.276 142.752 365.588 142.016C366.916 141.28 368.372 140.912 369.956 140.912C371.54 140.912 372.988 141.28 374.3 142.016C375.628 142.752 376.668 143.776 377.42 145.088C378.188 146.4 378.572 147.88 378.572 149.528C378.572 151.176 378.188 152.664 377.42 153.992C376.652 155.304 375.612 156.328 374.3 157.064C372.988 157.8 371.54 158.168 369.956 158.168ZM369.956 154.424C371.3 154.424 372.372 153.976 373.172 153.08C373.988 152.184 374.396 151 374.396 149.528C374.396 148.04 373.988 146.856 373.172 145.976C372.372 145.08 371.3 144.632 369.956 144.632C368.596 144.632 367.508 145.072 366.692 145.952C365.892 146.832 365.492 148.024 365.492 149.528C365.492 151.016 365.892 152.208 366.692 153.104C367.508 153.984 368.596 154.424 369.956 154.424ZM388.823 158.168C387.239 158.168 385.783 157.8 384.455 157.064C383.143 156.328 382.095 155.304 381.311 153.992C380.543 152.664 380.159 151.176 380.159 149.528C380.159 147.88 380.543 146.4 381.311 145.088C382.095 143.776 383.143 142.752 384.455 142.016C385.783 141.28 387.239 140.912 388.823 140.912C390.407 140.912 391.855 141.28 393.167 142.016C394.495 142.752 395.535 143.776 396.287 145.088C397.055 146.4 397.439 147.88 397.439 149.528C397.439 151.176 397.055 152.664 396.287 153.992C395.519 155.304 394.479 156.328 393.167 157.064C391.855 157.8 390.407 158.168 388.823 158.168ZM388.823 154.424C390.167 154.424 391.239 153.976 392.039 153.08C392.855 152.184 393.263 151 393.263 149.528C393.263 148.04 392.855 146.856 392.039 145.976C391.239 145.08 390.167 144.632 388.823 144.632C387.463 144.632 386.375 145.072 385.559 145.952C384.759 146.832 384.359 148.024 384.359 149.528C384.359 151.016 384.759 152.208 385.559 153.104C386.375 153.984 387.463 154.424 388.823 154.424Z" fill="white"/>
<rect width="278" height="84" transform="translate(454.5 108)" fill="#EB9B00"/>
<path d="M507.068 141.152V158H502.964V147.896L499.196 158H495.884L492.092 147.872V158H487.988V141.152H492.836L497.564 152.816L502.244 141.152H507.068ZM509.203 151.28C509.203 149.904 509.459 148.696 509.971 147.656C510.499 146.616 511.211 145.816 512.107 145.256C513.003 144.696 514.003 144.416 515.107 144.416C516.051 144.416 516.875 144.608 517.579 144.992C518.299 145.376 518.851 145.88 519.235 146.504V144.608H523.339V158H519.235V156.104C518.835 156.728 518.275 157.232 517.555 157.616C516.851 158 516.027 158.192 515.083 158.192C513.995 158.192 513.003 157.912 512.107 157.352C511.211 156.776 510.499 155.968 509.971 154.928C509.459 153.872 509.203 152.656 509.203 151.28ZM519.235 151.304C519.235 150.28 518.947 149.472 518.371 148.88C517.811 148.288 517.123 147.992 516.307 147.992C515.491 147.992 514.795 148.288 514.219 148.88C513.659 149.456 513.379 150.256 513.379 151.28C513.379 152.304 513.659 153.12 514.219 153.728C514.795 154.32 515.491 154.616 516.307 154.616C517.123 154.616 517.811 154.32 518.371 153.728C518.947 153.136 519.235 152.328 519.235 151.304ZM530.412 146.84C530.892 146.104 531.492 145.528 532.212 145.112C532.932 144.68 533.732 144.464 534.612 144.464V148.808H533.484C532.46 148.808 531.692 149.032 531.18 149.48C530.668 149.912 530.412 150.68 530.412 151.784V158H526.308V144.608H530.412V146.84ZM544.758 158L540.678 152.384V158H536.574V140.24H540.678V150.056L544.734 144.608H549.798L544.23 151.328L549.846 158H544.758ZM564.034 151.088C564.034 151.472 564.01 151.872 563.962 152.288H554.674C554.738 153.12 555.002 153.76 555.466 154.208C555.946 154.64 556.53 154.856 557.218 154.856C558.242 154.856 558.954 154.424 559.354 153.56H563.722C563.498 154.44 563.09 155.232 562.498 155.936C561.922 156.64 561.194 157.192 560.314 157.592C559.434 157.992 558.45 158.192 557.362 158.192C556.05 158.192 554.882 157.912 553.858 157.352C552.834 156.792 552.034 155.992 551.458 154.952C550.882 153.912 550.594 152.696 550.594 151.304C550.594 149.912 550.874 148.696 551.434 147.656C552.01 146.616 552.81 145.816 553.834 145.256C554.858 144.696 556.034 144.416 557.362 144.416C558.658 144.416 559.81 144.688 560.818 145.232C561.826 145.776 562.61 146.552 563.17 147.56C563.746 148.568 564.034 149.744 564.034 151.088ZM559.834 150.008C559.834 149.304 559.594 148.744 559.114 148.328C558.634 147.912 558.034 147.704 557.314 147.704C556.626 147.704 556.042 147.904 555.562 148.304C555.098 148.704 554.81 149.272 554.698 150.008H559.834ZM573.663 154.52V158H571.575C570.087 158 568.927 157.64 568.095 156.92C567.263 156.184 566.847 154.992 566.847 153.344V148.016H565.215V144.608H566.847V141.344H570.951V144.608H573.639V148.016H570.951V153.392C570.951 153.792 571.047 154.08 571.239 154.256C571.431 154.432 571.751 154.52 572.199 154.52H573.663ZM578.013 143.216C577.293 143.216 576.701 143.008 576.237 142.592C575.789 142.16 575.565 141.632 575.565 141.008C575.565 140.368 575.789 139.84 576.237 139.424C576.701 138.992 577.293 138.776 578.013 138.776C578.717 138.776 579.293 138.992 579.741 139.424C580.205 139.84 580.437 140.368 580.437 141.008C580.437 141.632 580.205 142.16 579.741 142.592C579.293 143.008 578.717 143.216 578.013 143.216ZM580.053 144.608V158H575.949V144.608H580.053ZM591.187 144.464C592.755 144.464 594.003 144.976 594.931 146C595.875 147.008 596.347 148.4 596.347 150.176V158H592.267V150.728C592.267 149.832 592.035 149.136 591.571 148.64C591.107 148.144 590.483 147.896 589.699 147.896C588.915 147.896 588.291 148.144 587.827 148.64C587.363 149.136 587.131 149.832 587.131 150.728V158H583.027V144.608H587.131V146.384C587.547 145.792 588.107 145.328 588.811 144.992C589.515 144.64 590.307 144.464 591.187 144.464ZM604.287 144.416C605.231 144.416 606.055 144.608 606.759 144.992C607.479 145.376 608.031 145.88 608.415 146.504V144.608H612.519V157.976C612.519 159.208 612.271 160.32 611.775 161.312C611.295 162.32 610.551 163.12 609.543 163.712C608.551 164.304 607.311 164.6 605.823 164.6C603.839 164.6 602.231 164.128 600.999 163.184C599.767 162.256 599.063 160.992 598.887 159.392H602.943C603.071 159.904 603.375 160.304 603.855 160.592C604.335 160.896 604.927 161.048 605.631 161.048C606.479 161.048 607.151 160.8 607.647 160.304C608.159 159.824 608.415 159.048 608.415 157.976V156.08C608.015 156.704 607.463 157.216 606.759 157.616C606.055 158 605.231 158.192 604.287 158.192C603.183 158.192 602.183 157.912 601.287 157.352C600.391 156.776 599.679 155.968 599.151 154.928C598.639 153.872 598.383 152.656 598.383 151.28C598.383 149.904 598.639 148.696 599.151 147.656C599.679 146.616 600.391 145.816 601.287 145.256C602.183 144.696 603.183 144.416 604.287 144.416ZM608.415 151.304C608.415 150.28 608.127 149.472 607.551 148.88C606.991 148.288 606.303 147.992 605.487 147.992C604.671 147.992 603.975 148.288 603.399 148.88C602.839 149.456 602.559 150.256 602.559 151.28C602.559 152.304 602.839 153.12 603.399 153.728C603.975 154.32 604.671 154.616 605.487 154.616C606.303 154.616 606.991 154.32 607.551 153.728C608.127 153.136 608.415 152.328 608.415 151.304ZM626.886 141.152C628.662 141.152 630.214 141.504 631.542 142.208C632.87 142.912 633.894 143.904 634.614 145.184C635.35 146.448 635.718 147.912 635.718 149.576C635.718 151.224 635.35 152.688 634.614 153.968C633.894 155.248 632.862 156.24 631.518 156.944C630.19 157.648 628.646 158 626.886 158H620.574V141.152H626.886ZM626.622 154.448C628.174 154.448 629.382 154.024 630.246 153.176C631.11 152.328 631.542 151.128 631.542 149.576C631.542 148.024 631.11 146.816 630.246 145.952C629.382 145.088 628.174 144.656 626.622 144.656H624.678V154.448H626.622ZM640.075 143.216C639.355 143.216 638.763 143.008 638.299 142.592C637.851 142.16 637.627 141.632 637.627 141.008C637.627 140.368 637.851 139.84 638.299 139.424C638.763 138.992 639.355 138.776 640.075 138.776C640.779 138.776 641.355 138.992 641.803 139.424C642.267 139.84 642.499 140.368 642.499 141.008C642.499 141.632 642.267 142.16 641.803 142.592C641.355 143.008 640.779 143.216 640.075 143.216ZM642.115 144.608V158H638.011V144.608H642.115ZM650.178 144.416C651.122 144.416 651.946 144.608 652.65 144.992C653.37 145.376 653.922 145.88 654.306 146.504V144.608H658.41V157.976C658.41 159.208 658.162 160.32 657.666 161.312C657.186 162.32 656.442 163.12 655.434 163.712C654.442 164.304 653.202 164.6 651.714 164.6C649.73 164.6 648.122 164.128 646.89 163.184C645.658 162.256 644.954 160.992 644.778 159.392H648.834C648.962 159.904 649.266 160.304 649.746 160.592C650.226 160.896 650.818 161.048 651.522 161.048C652.37 161.048 653.042 160.8 653.538 160.304C654.05 159.824 654.306 159.048 654.306 157.976V156.08C653.906 156.704 653.354 157.216 652.65 157.616C651.946 158 651.122 158.192 650.178 158.192C649.074 158.192 648.074 157.912 647.178 157.352C646.282 156.776 645.57 155.968 645.042 154.928C644.53 153.872 644.274 152.656 644.274 151.28C644.274 149.904 644.53 148.696 645.042 147.656C645.57 146.616 646.282 145.816 647.178 145.256C648.074 144.696 649.074 144.416 650.178 144.416ZM654.306 151.304C654.306 150.28 654.018 149.472 653.442 148.88C652.882 148.288 652.194 147.992 651.378 147.992C650.562 147.992 649.866 148.288 649.29 148.88C648.73 149.456 648.45 150.256 648.45 151.28C648.45 152.304 648.73 153.12 649.29 153.728C649.866 154.32 650.562 154.616 651.378 154.616C652.194 154.616 652.882 154.32 653.442 153.728C654.018 153.136 654.306 152.328 654.306 151.304ZM663.443 143.216C662.723 143.216 662.131 143.008 661.667 142.592C661.219 142.16 660.995 141.632 660.995 141.008C660.995 140.368 661.219 139.84 661.667 139.424C662.131 138.992 662.723 138.776 663.443 138.776C664.147 138.776 664.723 138.992 665.171 139.424C665.635 139.84 665.867 140.368 665.867 141.008C665.867 141.632 665.635 142.16 665.171 142.592C664.723 143.008 664.147 143.216 663.443 143.216ZM665.483 144.608V158H661.379V144.608H665.483ZM675.921 154.52V158H673.833C672.345 158 671.185 157.64 670.353 156.92C669.521 156.184 669.105 154.992 669.105 153.344V148.016H667.473V144.608H669.105V141.344H673.209V144.608H675.897V148.016H673.209V153.392C673.209 153.792 673.305 154.08 673.497 154.256C673.689 154.432 674.009 154.52 674.457 154.52H675.921ZM677.391 151.28C677.391 149.904 677.647 148.696 678.159 147.656C678.687 146.616 679.399 145.816 680.295 145.256C681.191 144.696 682.191 144.416 683.295 144.416C684.239 144.416 685.063 144.608 685.767 144.992C686.487 145.376 687.039 145.88 687.423 146.504V144.608H691.527V158H687.423V156.104C687.023 156.728 686.463 157.232 685.743 157.616C685.039 158 684.215 158.192 683.271 158.192C682.183 158.192 681.191 157.912 680.295 157.352C679.399 156.776 678.687 155.968 678.159 154.928C677.647 153.872 677.391 152.656 677.391 151.28ZM687.423 151.304C687.423 150.28 687.135 149.472 686.559 148.88C685.999 148.288 685.311 147.992 684.495 147.992C683.679 147.992 682.983 148.288 682.407 148.88C681.847 149.456 681.567 150.256 681.567 151.28C681.567 152.304 681.847 153.12 682.407 153.728C682.983 154.32 683.679 154.616 684.495 154.616C685.311 154.616 685.999 154.32 686.559 153.728C687.135 153.136 687.423 152.328 687.423 151.304ZM698.6 140.24V158H694.496V140.24H698.6Z" fill="white"/>
<rect width="127" height="84" transform="translate(756.5 108)" fill="#EB9B00"/>
<path d="M800.476 155.024H794.188L793.18 158H788.884L794.98 141.152H799.732L805.828 158H801.484L800.476 155.024ZM799.42 151.856L797.332 145.688L795.268 151.856H799.42ZM812.771 144.416C813.715 144.416 814.539 144.608 815.243 144.992C815.963 145.376 816.515 145.88 816.899 146.504V144.608H821.003V157.976C821.003 159.208 820.755 160.32 820.259 161.312C819.779 162.32 819.035 163.12 818.027 163.712C817.035 164.304 815.795 164.6 814.307 164.6C812.323 164.6 810.715 164.128 809.483 163.184C808.251 162.256 807.547 160.992 807.371 159.392H811.427C811.555 159.904 811.859 160.304 812.339 160.592C812.819 160.896 813.411 161.048 814.115 161.048C814.963 161.048 815.635 160.8 816.131 160.304C816.643 159.824 816.899 159.048 816.899 157.976V156.08C816.499 156.704 815.947 157.216 815.243 157.616C814.539 158 813.715 158.192 812.771 158.192C811.667 158.192 810.667 157.912 809.771 157.352C808.875 156.776 808.163 155.968 807.635 154.928C807.123 153.872 806.867 152.656 806.867 151.28C806.867 149.904 807.123 148.696 807.635 147.656C808.163 146.616 808.875 145.816 809.771 145.256C810.667 144.696 811.667 144.416 812.771 144.416ZM816.899 151.304C816.899 150.28 816.611 149.472 816.035 148.88C815.475 148.288 814.787 147.992 813.971 147.992C813.155 147.992 812.459 148.288 811.883 148.88C811.323 149.456 811.043 150.256 811.043 151.28C811.043 152.304 811.323 153.12 811.883 153.728C812.459 154.32 813.155 154.616 813.971 154.616C814.787 154.616 815.475 154.32 816.035 153.728C816.611 153.136 816.899 152.328 816.899 151.304ZM826.036 143.216C825.316 143.216 824.724 143.008 824.26 142.592C823.812 142.16 823.588 141.632 823.588 141.008C823.588 140.368 823.812 139.84 824.26 139.424C824.724 138.992 825.316 138.776 826.036 138.776C826.74 138.776 827.316 138.992 827.764 139.424C828.228 139.84 828.46 140.368 828.46 141.008C828.46 141.632 828.228 142.16 827.764 142.592C827.316 143.008 826.74 143.216 826.036 143.216ZM828.076 144.608V158H823.972V144.608H828.076ZM835.155 140.24V158H831.051V140.24H835.155ZM850.753 151.088C850.753 151.472 850.729 151.872 850.681 152.288H841.393C841.457 153.12 841.721 153.76 842.185 154.208C842.665 154.64 843.249 154.856 843.937 154.856C844.961 154.856 845.673 154.424 846.073 153.56H850.441C850.217 154.44 849.809 155.232 849.217 155.936C848.641 156.64 847.913 157.192 847.033 157.592C846.153 157.992 845.169 158.192 844.081 158.192C842.769 158.192 841.601 157.912 840.577 157.352C839.553 156.792 838.753 155.992 838.177 154.952C837.601 153.912 837.313 152.696 837.313 151.304C837.313 149.912 837.593 148.696 838.153 147.656C838.729 146.616 839.529 145.816 840.553 145.256C841.577 144.696 842.753 144.416 844.081 144.416C845.377 144.416 846.529 144.688 847.537 145.232C848.545 145.776 849.329 146.552 849.889 147.56C850.465 148.568 850.753 149.744 850.753 151.088ZM846.553 150.008C846.553 149.304 846.313 148.744 845.833 148.328C845.353 147.912 844.753 147.704 844.033 147.704C843.345 147.704 842.761 147.904 842.281 148.304C841.817 148.704 841.529 149.272 841.417 150.008H846.553Z" fill="white"/>
<rect width="171" height="84" transform="translate(148 216)" fill="#EB9B00"/>
<path d="M187.584 266.168C186.352 266.168 185.248 265.968 184.272 265.568C183.296 265.168 182.512 264.576 181.92 263.792C181.344 263.008 181.04 262.064 181.008 260.96H185.376C185.44 261.584 185.656 262.064 186.024 262.4C186.392 262.72 186.872 262.88 187.464 262.88C188.072 262.88 188.552 262.744 188.904 262.472C189.256 262.184 189.432 261.792 189.432 261.296C189.432 260.88 189.288 260.536 189 260.264C188.728 259.992 188.384 259.768 187.968 259.592C187.568 259.416 186.992 259.216 186.24 258.992C185.152 258.656 184.264 258.32 183.576 257.984C182.888 257.648 182.296 257.152 181.8 256.496C181.304 255.84 181.056 254.984 181.056 253.928C181.056 252.36 181.624 251.136 182.76 250.256C183.896 249.36 185.376 248.912 187.2 248.912C189.056 248.912 190.552 249.36 191.688 250.256C192.824 251.136 193.432 252.368 193.512 253.952H189.072C189.04 253.408 188.84 252.984 188.472 252.68C188.104 252.36 187.632 252.2 187.056 252.2C186.56 252.2 186.16 252.336 185.856 252.608C185.552 252.864 185.4 253.24 185.4 253.736C185.4 254.28 185.656 254.704 186.168 255.008C186.68 255.312 187.48 255.64 188.568 255.992C189.656 256.36 190.536 256.712 191.208 257.048C191.896 257.384 192.488 257.872 192.984 258.512C193.48 259.152 193.728 259.976 193.728 260.984C193.728 261.944 193.48 262.816 192.984 263.6C192.504 264.384 191.8 265.008 190.872 265.472C189.944 265.936 188.848 266.168 187.584 266.168ZM203.718 262.52V266H201.63C200.142 266 198.982 265.64 198.15 264.92C197.318 264.184 196.902 262.992 196.902 261.344V256.016H195.27V252.608H196.902V249.344H201.006V252.608H203.694V256.016H201.006V261.392C201.006 261.792 201.102 262.08 201.294 262.256C201.486 262.432 201.806 262.52 202.254 262.52H203.718ZM205.188 259.28C205.188 257.904 205.444 256.696 205.956 255.656C206.484 254.616 207.196 253.816 208.092 253.256C208.988 252.696 209.988 252.416 211.092 252.416C212.036 252.416 212.86 252.608 213.564 252.992C214.284 253.376 214.836 253.88 215.22 254.504V252.608H219.324V266H215.22V264.104C214.82 264.728 214.26 265.232 213.54 265.616C212.836 266 212.012 266.192 211.068 266.192C209.98 266.192 208.988 265.912 208.092 265.352C207.196 264.776 206.484 263.968 205.956 262.928C205.444 261.872 205.188 260.656 205.188 259.28ZM215.22 259.304C215.22 258.28 214.932 257.472 214.356 256.88C213.796 256.288 213.108 255.992 212.292 255.992C211.476 255.992 210.78 256.288 210.204 256.88C209.644 257.456 209.364 258.256 209.364 259.28C209.364 260.304 209.644 261.12 210.204 261.728C210.78 262.32 211.476 262.616 212.292 262.616C213.108 262.616 213.796 262.32 214.356 261.728C214.932 261.136 215.22 260.328 215.22 259.304ZM226.397 254.84C226.877 254.104 227.477 253.528 228.197 253.112C228.917 252.68 229.717 252.464 230.597 252.464V256.808H229.469C228.445 256.808 227.677 257.032 227.165 257.48C226.653 257.912 226.397 258.68 226.397 259.784V266H222.293V252.608H226.397V254.84ZM240.022 262.52V266H237.934C236.446 266 235.286 265.64 234.454 264.92C233.622 264.184 233.206 262.992 233.206 261.344V256.016H231.574V252.608H233.206V249.344H237.31V252.608H239.998V256.016H237.31V261.392C237.31 261.792 237.406 262.08 237.598 262.256C237.79 262.432 238.11 262.52 238.558 262.52H240.022ZM255.532 252.608V266H251.428V264.176C251.012 264.768 250.444 265.248 249.724 265.616C249.02 265.968 248.236 266.144 247.372 266.144C246.348 266.144 245.444 265.92 244.66 265.472C243.876 265.008 243.268 264.344 242.836 263.48C242.404 262.616 242.188 261.6 242.188 260.432V252.608H246.268V259.88C246.268 260.776 246.5 261.472 246.964 261.968C247.428 262.464 248.052 262.712 248.836 262.712C249.636 262.712 250.268 262.464 250.732 261.968C251.196 261.472 251.428 260.776 251.428 259.88V252.608H255.532ZM262.584 254.504C262.984 253.88 263.536 253.376 264.24 252.992C264.944 252.608 265.768 252.416 266.712 252.416C267.816 252.416 268.816 252.696 269.712 253.256C270.608 253.816 271.312 254.616 271.824 255.656C272.352 256.696 272.616 257.904 272.616 259.28C272.616 260.656 272.352 261.872 271.824 262.928C271.312 263.968 270.608 264.776 269.712 265.352C268.816 265.912 267.816 266.192 266.712 266.192C265.784 266.192 264.96 266 264.24 265.616C263.536 265.232 262.984 264.736 262.584 264.128V272.384H258.48V252.608H262.584V254.504ZM268.44 259.28C268.44 258.256 268.152 257.456 267.576 256.88C267.016 256.288 266.32 255.992 265.488 255.992C264.672 255.992 263.976 256.288 263.4 256.88C262.84 257.472 262.56 258.28 262.56 259.304C262.56 260.328 262.84 261.136 263.4 261.728C263.976 262.32 264.672 262.616 265.488 262.616C266.304 262.616 267 262.32 267.576 261.728C268.152 261.12 268.44 260.304 268.44 259.28ZM280.217 266.192C279.049 266.192 278.009 265.992 277.097 265.592C276.185 265.192 275.465 264.648 274.937 263.96C274.409 263.256 274.113 262.472 274.049 261.608H278.105C278.153 262.072 278.369 262.448 278.753 262.736C279.137 263.024 279.609 263.168 280.169 263.168C280.681 263.168 281.073 263.072 281.345 262.88C281.633 262.672 281.777 262.408 281.777 262.088C281.777 261.704 281.577 261.424 281.177 261.248C280.777 261.056 280.129 260.848 279.233 260.624C278.273 260.4 277.473 260.168 276.833 259.928C276.193 259.672 275.641 259.28 275.177 258.752C274.713 258.208 274.481 257.48 274.481 256.568C274.481 255.8 274.689 255.104 275.105 254.48C275.537 253.84 276.161 253.336 276.977 252.968C277.809 252.6 278.793 252.416 279.929 252.416C281.609 252.416 282.929 252.832 283.889 253.664C284.865 254.496 285.425 255.6 285.569 256.976H281.777C281.713 256.512 281.505 256.144 281.153 255.872C280.817 255.6 280.369 255.464 279.809 255.464C279.329 255.464 278.961 255.56 278.705 255.752C278.449 255.928 278.321 256.176 278.321 256.496C278.321 256.88 278.521 257.168 278.921 257.36C279.337 257.552 279.977 257.744 280.841 257.936C281.833 258.192 282.641 258.448 283.265 258.704C283.889 258.944 284.433 259.344 284.897 259.904C285.377 260.448 285.625 261.184 285.641 262.112C285.641 262.896 285.417 263.6 284.969 264.224C284.537 264.832 283.905 265.312 283.073 265.664C282.257 266.016 281.305 266.192 280.217 266.192Z" fill="white"/>
<rect width="207" height="84" transform="translate(343 216)" fill="#EB9B00"/>
<path d="M391.08 249.152V266H386.976V259.064H380.592V266H376.488V249.152H380.592V255.752H386.976V249.152H391.08ZM406.163 249.152V252.44H401.699V266H397.595V252.44H393.131V249.152H406.163ZM427.302 249.152V266H423.198V255.896L419.43 266H416.118L412.326 255.872V266H408.222V249.152H413.07L417.798 260.816L422.478 249.152H427.302ZM434.358 262.832H439.734V266H430.254V249.152H434.358V262.832ZM459.665 266L458.105 264.488C456.553 265.672 454.697 266.264 452.537 266.264C451.241 266.264 450.113 266.056 449.153 265.64C448.193 265.208 447.449 264.608 446.921 263.84C446.409 263.056 446.153 262.144 446.153 261.104C446.153 260.048 446.433 259.096 446.993 258.248C447.569 257.384 448.425 256.68 449.561 256.136C449.145 255.624 448.849 255.136 448.673 254.672C448.497 254.192 448.409 253.672 448.409 253.112C448.409 252.312 448.617 251.584 449.033 250.928C449.449 250.272 450.049 249.76 450.833 249.392C451.633 249.008 452.577 248.816 453.665 248.816C454.769 248.816 455.705 249.016 456.473 249.416C457.241 249.816 457.817 250.352 458.201 251.024C458.585 251.696 458.761 252.432 458.729 253.232H454.865C454.881 252.8 454.769 252.472 454.529 252.248C454.305 252.008 454.001 251.888 453.617 251.888C453.233 251.888 452.913 252 452.657 252.224C452.401 252.448 452.273 252.736 452.273 253.088C452.273 253.424 452.377 253.776 452.585 254.144C452.809 254.512 453.153 254.936 453.617 255.416L457.721 259.424C457.753 259.344 457.793 259.248 457.841 259.136C457.905 259.024 457.969 258.896 458.033 258.752L458.921 257.24H463.025L461.873 259.328C461.441 260.272 460.945 261.168 460.385 262.016L464.441 266H459.665ZM452.729 262.952C453.801 262.952 454.753 262.648 455.585 262.04L451.841 258.416C450.689 259.008 450.113 259.808 450.113 260.816C450.113 261.424 450.345 261.936 450.809 262.352C451.289 262.752 451.929 262.952 452.729 262.952ZM470.315 257.552C470.315 255.888 470.675 254.408 471.395 253.112C472.115 251.8 473.115 250.784 474.395 250.064C475.691 249.328 477.155 248.96 478.787 248.96C480.787 248.96 482.499 249.488 483.923 250.544C485.347 251.6 486.299 253.04 486.779 254.864H482.267C481.931 254.16 481.451 253.624 480.827 253.256C480.219 252.888 479.523 252.704 478.739 252.704C477.475 252.704 476.451 253.144 475.667 254.024C474.883 254.904 474.491 256.08 474.491 257.552C474.491 259.024 474.883 260.2 475.667 261.08C476.451 261.96 477.475 262.4 478.739 262.4C479.523 262.4 480.219 262.216 480.827 261.848C481.451 261.48 481.931 260.944 482.267 260.24H486.779C486.299 262.064 485.347 263.504 483.923 264.56C482.499 265.6 480.787 266.12 478.787 266.12C477.155 266.12 475.691 265.76 474.395 265.04C473.115 264.304 472.115 263.288 471.395 261.992C470.675 260.696 470.315 259.216 470.315 257.552ZM495.389 266.168C494.157 266.168 493.053 265.968 492.077 265.568C491.101 265.168 490.317 264.576 489.725 263.792C489.149 263.008 488.845 262.064 488.813 260.96H493.181C493.245 261.584 493.461 262.064 493.829 262.4C494.197 262.72 494.677 262.88 495.269 262.88C495.877 262.88 496.357 262.744 496.709 262.472C497.061 262.184 497.237 261.792 497.237 261.296C497.237 260.88 497.093 260.536 496.805 260.264C496.533 259.992 496.189 259.768 495.773 259.592C495.373 259.416 494.797 259.216 494.045 258.992C492.957 258.656 492.069 258.32 491.381 257.984C490.693 257.648 490.101 257.152 489.605 256.496C489.109 255.84 488.861 254.984 488.861 253.928C488.861 252.36 489.429 251.136 490.565 250.256C491.701 249.36 493.181 248.912 495.005 248.912C496.861 248.912 498.357 249.36 499.493 250.256C500.629 251.136 501.237 252.368 501.317 253.952H496.877C496.845 253.408 496.645 252.984 496.277 252.68C495.909 252.36 495.437 252.2 494.861 252.2C494.365 252.2 493.965 252.336 493.661 252.608C493.357 252.864 493.205 253.24 493.205 253.736C493.205 254.28 493.461 254.704 493.973 255.008C494.485 255.312 495.285 255.64 496.373 255.992C497.461 256.36 498.341 256.712 499.013 257.048C499.701 257.384 500.293 257.872 500.789 258.512C501.285 259.152 501.533 259.976 501.533 260.984C501.533 261.944 501.285 262.816 500.789 263.6C500.309 264.384 499.605 265.008 498.677 265.472C497.749 265.936 496.653 266.168 495.389 266.168ZM510.154 266.168C508.922 266.168 507.818 265.968 506.842 265.568C505.866 265.168 505.082 264.576 504.49 263.792C503.914 263.008 503.61 262.064 503.578 260.96H507.946C508.01 261.584 508.226 262.064 508.594 262.4C508.962 262.72 509.442 262.88 510.034 262.88C510.642 262.88 511.122 262.744 511.474 262.472C511.826 262.184 512.002 261.792 512.002 261.296C512.002 260.88 511.858 260.536 511.57 260.264C511.298 259.992 510.954 259.768 510.538 259.592C510.138 259.416 509.562 259.216 508.81 258.992C507.722 258.656 506.834 258.32 506.146 257.984C505.458 257.648 504.866 257.152 504.37 256.496C503.874 255.84 503.626 254.984 503.626 253.928C503.626 252.36 504.194 251.136 505.33 250.256C506.466 249.36 507.946 248.912 509.77 248.912C511.626 248.912 513.122 249.36 514.258 250.256C515.394 251.136 516.002 252.368 516.082 253.952H511.642C511.61 253.408 511.41 252.984 511.042 252.68C510.674 252.36 510.202 252.2 509.626 252.2C509.13 252.2 508.73 252.336 508.426 252.608C508.122 252.864 507.97 253.24 507.97 253.736C507.97 254.28 508.226 254.704 508.738 255.008C509.25 255.312 510.05 255.64 511.138 255.992C512.226 256.36 513.106 256.712 513.778 257.048C514.466 257.384 515.058 257.872 515.554 258.512C516.05 259.152 516.298 259.976 516.298 260.984C516.298 261.944 516.05 262.816 515.554 263.6C515.074 264.384 514.37 265.008 513.442 265.472C512.514 265.936 511.418 266.168 510.154 266.168Z" fill="white"/>
<rect width="126" height="84" transform="translate(574 216)" fill="#EB9B00"/>
<path d="M618.048 249.152V260.624C618.048 262.4 617.544 263.768 616.536 264.728C615.544 265.688 614.2 266.168 612.504 266.168C610.728 266.168 609.304 265.664 608.232 264.656C607.16 263.648 606.624 262.216 606.624 260.36H610.704C610.704 261.064 610.848 261.6 611.136 261.968C611.424 262.32 611.84 262.496 612.384 262.496C612.88 262.496 613.264 262.336 613.536 262.016C613.808 261.696 613.944 261.232 613.944 260.624V249.152H618.048ZM620.547 259.28C620.547 257.904 620.803 256.696 621.315 255.656C621.843 254.616 622.555 253.816 623.451 253.256C624.347 252.696 625.347 252.416 626.451 252.416C627.395 252.416 628.219 252.608 628.923 252.992C629.643 253.376 630.195 253.88 630.579 254.504V252.608H634.683V266H630.579V264.104C630.179 264.728 629.619 265.232 628.899 265.616C628.195 266 627.371 266.192 626.427 266.192C625.339 266.192 624.347 265.912 623.451 265.352C622.555 264.776 621.843 263.968 621.315 262.928C620.803 261.872 620.547 260.656 620.547 259.28ZM630.579 259.304C630.579 258.28 630.291 257.472 629.715 256.88C629.155 256.288 628.467 255.992 627.651 255.992C626.835 255.992 626.139 256.288 625.563 256.88C625.003 257.456 624.723 258.256 624.723 259.28C624.723 260.304 625.003 261.12 625.563 261.728C626.139 262.32 626.835 262.616 627.651 262.616C628.467 262.616 629.155 262.32 629.715 261.728C630.291 261.136 630.579 260.328 630.579 259.304ZM643.676 262.16L646.58 252.608H650.948L646.196 266H641.132L636.38 252.608H640.772L643.676 262.16ZM651.86 259.28C651.86 257.904 652.116 256.696 652.628 255.656C653.156 254.616 653.868 253.816 654.764 253.256C655.66 252.696 656.66 252.416 657.764 252.416C658.708 252.416 659.532 252.608 660.236 252.992C660.956 253.376 661.508 253.88 661.892 254.504V252.608H665.996V266H661.892V264.104C661.492 264.728 660.932 265.232 660.212 265.616C659.508 266 658.684 266.192 657.74 266.192C656.652 266.192 655.66 265.912 654.764 265.352C653.868 264.776 653.156 263.968 652.628 262.928C652.116 261.872 651.86 260.656 651.86 259.28ZM661.892 259.304C661.892 258.28 661.604 257.472 661.028 256.88C660.468 256.288 659.78 255.992 658.964 255.992C658.148 255.992 657.452 256.288 656.876 256.88C656.316 257.456 656.036 258.256 656.036 259.28C656.036 260.304 656.316 261.12 656.876 261.728C657.452 262.32 658.148 262.616 658.964 262.616C659.78 262.616 660.468 262.32 661.028 261.728C661.604 261.136 661.892 260.328 661.892 259.304Z" fill="white"/>
<rect width="152" height="84" transform="translate(724 216)" fill="#EB9B00"/>
<path d="M770.328 254.576C770.328 255.552 770.104 256.448 769.656 257.264C769.208 258.064 768.52 258.712 767.592 259.208C766.664 259.704 765.512 259.952 764.136 259.952H761.592V266H757.488V249.152H764.136C765.48 249.152 766.616 249.384 767.544 249.848C768.472 250.312 769.168 250.952 769.632 251.768C770.096 252.584 770.328 253.52 770.328 254.576ZM763.824 256.688C764.608 256.688 765.192 256.504 765.576 256.136C765.96 255.768 766.152 255.248 766.152 254.576C766.152 253.904 765.96 253.384 765.576 253.016C765.192 252.648 764.608 252.464 763.824 252.464H761.592V256.688H763.824ZM786.145 252.608L777.745 272.36H773.329L776.401 265.544L770.953 252.608H775.537L778.633 260.984L781.705 252.608H786.145ZM795.093 262.52V266H793.005C791.517 266 790.357 265.64 789.525 264.92C788.693 264.184 788.277 262.992 788.277 261.344V256.016H786.645V252.608H788.277V249.344H792.381V252.608H795.069V256.016H792.381V261.392C792.381 261.792 792.477 262.08 792.669 262.256C792.861 262.432 793.181 262.52 793.629 262.52H795.093ZM805.611 252.464C807.147 252.464 808.379 252.976 809.307 254C810.235 255.008 810.699 256.4 810.699 258.176V266H806.619V258.728C806.619 257.832 806.387 257.136 805.923 256.64C805.459 256.144 804.835 255.896 804.051 255.896C803.267 255.896 802.643 256.144 802.179 256.64C801.715 257.136 801.483 257.832 801.483 258.728V266H797.379V248.24H801.483V254.408C801.899 253.816 802.467 253.344 803.187 252.992C803.907 252.64 804.715 252.464 805.611 252.464ZM819.647 266.192C818.335 266.192 817.151 265.912 816.095 265.352C815.055 264.792 814.231 263.992 813.623 262.952C813.031 261.912 812.735 260.696 812.735 259.304C812.735 257.928 813.039 256.72 813.646 255.68C814.255 254.624 815.087 253.816 816.143 253.256C817.199 252.696 818.383 252.416 819.695 252.416C821.007 252.416 822.191 252.696 823.247 253.256C824.303 253.816 825.135 254.624 825.743 255.68C826.351 256.72 826.655 257.928 826.655 259.304C826.655 260.68 826.343 261.896 825.719 262.952C825.111 263.992 824.271 264.792 823.199 265.352C822.143 265.912 820.959 266.192 819.647 266.192ZM819.647 262.64C820.431 262.64 821.095 262.352 821.639 261.776C822.199 261.2 822.479 260.376 822.479 259.304C822.479 258.232 822.207 257.408 821.663 256.832C821.135 256.256 820.479 255.968 819.695 255.968C818.895 255.968 818.231 256.256 817.703 256.832C817.175 257.392 816.911 258.216 816.911 259.304C816.911 260.376 817.167 261.2 817.679 261.776C818.207 262.352 818.863 262.64 819.647 262.64ZM836.992 252.464C838.56 252.464 839.808 252.976 840.736 254C841.68 255.008 842.152 256.4 842.152 258.176V266H838.072V258.728C838.072 257.832 837.84 257.136 837.376 256.64C836.912 256.144 836.288 255.896 835.504 255.896C834.72 255.896 834.096 256.144 833.632 256.64C833.168 257.136 832.936 257.832 832.936 258.728V266H828.832V252.608H832.936V254.384C833.352 253.792 833.912 253.328 834.616 252.992C835.32 252.64 836.112 252.464 836.992 252.464Z" fill="white"/>
<defs>
<linearGradient id="paint0_linear_115_7217" x1="428.27" y1="-39.8401" x2="1719.94" y2="488.193" gradientUnits="userSpaceOnUse">
<stop stop-color="#002F52"/>
<stop offset="1" stop-color="#326589"/>
</linearGradient>
</defs>
</svg>
